<svg xmlns="http://www.w3.org/2000/svg" viewBox="30 -2 266 256">
<defs>
    <linearGradient id="grad1" x1="0%" y1="0%" x2="100%" y2="0%" gradientTransform="rotate(45)">
      <stop offset="0%" style="stop-color:#49aac3;stop-opacity:1" />
      <stop offset="100%" style="stop-color:#00617a;stop-opacity:1" />
    </linearGradient>
  </defs>
<rect style="fill:transparent" width="530" height="370" x="-130" y="-10" />
<path d="m 130,28c-54.1,0 -98,43.8 -98,98 0,30.7 14.1,58.2 36.3,76.1 -0.2,-18.6 -0.7,-37.4 3.9,-55.6 1.2,-11.9 12.4,-16.9 21,-22.8 7.3,-5.5 6.4,-17.2 4,-24.4 -6,11.5 -8.2,-8.5 -9,-13.2 -6.4,-9.5 0.2,-20.2 6.8,-27.6 6,-6.7 8.4,-20.4 19.2,-20.6 -0.1,4.6 -11,7.9 -11.2,14.8 7.2,-0.5 16.5,-2.4 24.8,-0.3 10.4,2.8 18.9,-6.5 29.3,-4.9 0.6,6.5 -23.6,4 -15.5,13.8 11.3,9.7 10.5,26.1 9.6,39.6 1.9,11.2 14.9,14.6 24,18.2 10.3,1.2 19.1,9.8 20.1,20.3 -0.2,18.6 2.5,37.3 3.4,56C216.9,177.6 228,153.1 228,126 228,71.8 184.1,28 130,28zm -12.6,26.4c-6,0.1 -11.9,1.5 -17.1,4.7 -10.9,7.1 -9.2,21.7 -6.9,32.8 -0,8.6 1.6,2.1 6.5,2.3 1,9.4 6.3,-6.1 9,1.9 0.3,7.8 2,0.4 3,-2.6 4.4,-9.1 2.8,6.5 0.8,9.4 -3.7,11.4 -7,-12 -8.2,-0.9 0.3,9.5 -3.5,17.5 -8.2,25.4 9.4,5 18.1,11.5 26.7,18l1.3,0.9 0.6,0.4c10.7,-9.7 20.4,-20.5 30.3,-31.2 -5.7,-6 -9.2,-16.5 -7.7,-25.8 2.4,-9.3 -1.1,-19.2 -7.6,-26.1 -1.4,-6.9 -12.3,-0.2 -8.6,-7.8 -4.4,-1 -9.2,-1.7 -13.9,-1.6zm 2.9,16.2c6,-0 8.3,10.2 -0.1,11.3 -4.3,0.8 -7.5,-6.4 -4.5,-9.4 1.6,-1.3 3.2,-1.9 4.6,-1.9zm -1,4.2c-1.4,0.1 -2.1,1 0.3,3.5 6.1,-1.5 2,-3.7 -0.3,-3.5zm 19.6,1.8c1.1,0 2.8,1.5 2.9,4.3 3.8,8.5 -3.1,10.8 -9.4,12.3 -13.6,-0.2 11.6,-5.1 6.6,-12.2 -1.8,-3.1 -1.2,-4.6 -0,-4.5zm 6.6,8.3c1.9,-0.3 2.5,12.9 -4,12.6 -1.2,0.2 -2.5,0.2 -3.8,0.1 -11.1,-2.9 6.8,-1.6 6.1,-8.7 0.5,-2.8 1.2,-4 1.7,-4zm 14.2,32.3c-25.4,26 -51.5,51.5 -76.8,77.7 -0,5.4 -0.3,10.9 -0.6,16.4 6.5,3.6 13.6,6.6 21,8.7 -0.2,-1.8 -1.3,-4 -3,-5.8 -8.1,-11.2 8,-4.8 12.1,-9.4 22.4,-21 44.4,-42.6 65.1,-65.3 6,-0.2 -3.7,9.9 -6.2,12.2 -14.6,16.2 -31.5,30.4 -46.1,46.8 -6.2,6.8 -14.4,14.1 -10.4,24 0.7,0.1 1.4,0.2 2.1,0.3 6.6,-4 11.2,-12.6 18,-17.2 3.3,4.9 -9.1,12.1 -12.3,17.8C125,223.8 127.5,224 130,224c5.2,0 10.3,-0.4 15.3,-1.1 0,-0 0,-0.1 0.1,-0.1 3.5,-11.9 14.6,-19.1 21.9,-28.6 7.6,-11.6 14.2,-24.1 21,-36.3 6,-8.7 5.4,-22.1 -2.2,-29.7 -8.4,-4 -17.5,-6.9 -26.3,-10.4zm -66.1,13.6c-4.3,0.2 -8.3,4.4 -7.4,9.7 0.5,15.7 -1.8,31.3 -3,46.9C96.2,175.3 109.6,163.2 121.5,149.7c-7,-5.7 -14.1,-11.6 -22,-16.2 -1.7,-1.8 -3.8,-2.5 -5.8,-2.4zm 65.2,0.4c0.7,-0.1 1.1,0.5 0.8,2.4 -19.2,19.7 -39.1,38.7 -57.8,59 -2.7,0.7 -1,-2.6 -1,-3.8 15,-16.9 31.1,-33 47.6,-48.5 2,-1.2 8,-8.6 10.3,-8.9zm -76,3.3c-6.8,5.2 -7.7,14.6 -9.4,22.5 -1,15.7 -1.6,31.5 -1.5,47.3 2.2,1.6 4.5,3.2 6.8,4.6 1,-24.8 2.6,-49.7 4.1,-74.5zm 10.1,2c5.2,3.3 15.8,6.9 17.1,13.1 -5.6,-1.4 -17.1,-7 -17.1,-13.1zm -3.2,8.4c6,0.3 16.3,7.9 19.2,13 -7.1,-1.6 -15.4,-6.6 -19.2,-13zm 102.5,14.9c-1.5,-0 -4.1,3.6 -5.3,6.7 -3.3,9.2 -11.6,16.1 -12.9,26.2 -2.3,6 0.9,12.7 2.2,18.9 6.8,-3.7 13.2,-8.2 19,-13.3 -0.2,-11.2 -1.1,-22.4 -2,-33.5 0.4,-3.5 -0,-4.9 -0.9,-4.9zm -23.9,37.1c-0.8,0.1 -1.7,1.4 -2.6,4.7 3.3,7.1 -2.6,11.2 -5.8,17.1 4.4,-1.4 8.7,-3.1 12.8,-5.1 0.5,-3.1 -0,-6.5 -1.5,-9.8 -0.2,-3.7 -1.4,-7 -2.8,-6.8 z" 
fill="#fff" />
<svg xmlns="http://www.w3.org/2000/svg" width="370" height="500" viewBox="0 0 370 500">
<g transform="translate(-28,-6)">
<path d="m 400.02,359.60 -99.37,-7.03 -88.89,3.59 L 138.75,365 l -79.82,15.17 -59.82,16.25 0,125 401.96,0 z" fill="#fecf72" /><path d="m 197.43,475.86 -5.88,-6.77 0.42,-4.36 31.20,-20.56 -17.86,-169.24 -16.54,-48.73 -0.12,-74.11 4.67,-26.13 4.79,-7.95 14.89,-9.09 5.30,-6.69 2.27,-13.51 -3.66,-10.98 -5.05,7.67 -4.29,-28.72 5.68,-13.85 13.66,-7.57 18.65,-0.41 12.02,4.26 11.52,19.28 0.34,29.57 9.75,10.13 35.67,42.39 3.78,63.13 -2.77,16.16 -5.42,8.71 -5.93,1.38 -2.65,4.92 3.62,90.77 2.76,33.39 6.51,32.94 -24.28,111.42 -6.96,2.32 -8.89,-6.62 23.00,-34.53 -17.85,-73.75 L 268.75,330.98 253.07,330.69 233.91,470.30 z" fill="#aeaeae" /><rect idx="occhioL" style="fill:#ffffff;stroke:none" width="2.39" height="3.34" x="206.22" y="52.83" /><path d="m 239.65,63.41 -4.54,-4.76 2.62,-4.73 6.91,3.44 z" fill="#ffffff" /><path d="m 290.79,503.07 -13.19,-10.48 20.39,-27.46 -17.80,-71.91 17.67,2.84 16.47,-6.62 5.49,28.91 3.72,31.44 5.11,27.71 -1.76,3.47 z" fill="#b58d65" /><path d="m 192.93,462.42 14.52,12.12 32.57,-5.68 3.40,-7.57 2.14,-76.51 -9.47,2.52 -15.15,-3.40 -5.42,-4.54 3.40,65.65 z" fill="#b58d65" /><path d="m 296.07,204.82 -61.25,22.85 -14.28,-2.14 -4.10,20.71 34.46,-6.60 21.90,-2.18 30.41,-6.38 2.14,32.32 7.5,54.28 -1.96,5.71 -28.92,6.42 -53.92,1.07 -18.57,-2.14 -3.75,-5.71 -4.64,-50 -1.42,-96.60 4.28,-61.42 7.29,-4.73 76.45,50.45 z" fill="#ffffff" /><path d="m 233.97,243.21 -34.34,29.67 -1.64,-66.16 1.76,-29.04 80.43,-80.30 25.75,10.60 5.93,4.41 3.78,21.33 -49.24,82.57 -34.59,11.61 -12.37,-2.65 -3.03,21.59 z" fill="#fecf72" /><path d="m 282,505.10 c 0,-0.49 -1.8,-1.61 -4,-2.49 -2.2,-0.88 -4,-2.10 -4,-2.71 0,-2.39 6.68,-13.49 11.03,-18.32 C 290.18,475.86 296,466.76 296,464.41 c 0,-0.85 -1.09,-5.90 -2.43,-11.23 -1.33,-5.32 -3.13,-13.05 -4.00,-17.18 -0.86,-4.12 -2.92,-12.45 -4.57,-18.5 -1.65,-6.05 -3.40,-13.25 -3.89,-16 -0.48,-2.75 -1.78,-9.27 -2.87,-14.5 -1.09,-5.22 -2.75,-13.77 -3.68,-19 -0.93,-5.22 -1.91,-10.28 -2.18,-11.25 -0.42,-1.52 -1.85,-1.75 -11.30,-1.75 l -10.81,0 -1.18,11.75 c -0.65,6.46 -1.61,15.35 -2.13,19.75 -0.52,4.4 -1.20,22.17 -1.51,39.5 -0.65,37.22 -1.16,41.04 -5.69,43.37 -3.31,1.69 -26.05,5.51 -37.95,6.36 -5.74,0.41 -6.75,0.24 -6.75,-1.12 0,-0.88 -0.33,-1.62 -0.75,-1.64 -0.41,-0.01 -1.58,-1.17 -2.59,-2.56 -1.55,-2.13 -1.66,-2.97 -0.66,-5.37 1.37,-3.30 9.47,-9.83 19.85,-16.00 l 7.32,-4.34 -0.65,-20.08 c -0.65,-20.06 -3.00,-55.61 -4.15,-62.79 C 212.75,358.06 212.66,358 208.34,358 191.78,358 130.47,366.48 92,374.09 72.13,378.02 32.49,387.66 14.58,392.92 2.69,396.41 -1.73,397.24 0.08,395.63 1.82,394.09 58.98,379.34 81.5,374.63 c 34.74,-7.27 77.93,-13.80 113.49,-17.14 9.62,-0.90 17.58,-1.73 17.69,-1.84 0.11,-0.11 -0.14,-5.76 -0.56,-12.55 -0.73,-11.81 -0.88,-12.43 -3.42,-14.28 -3.39,-2.47 -4.22,-5.94 -5.68,-23.79 -2.03,-24.85 -2.77,-31.23 -3.71,-31.87 -0.50,-0.34 -0.94,-4.67 -0.98,-9.62 -0.06,-7.94 -0.44,-9.82 -3.29,-16 -7.55,-16.39 -7.32,-14.95 -7.78,-48.5 -0.58,-42.83 1.51,-65.87 7.01,-76.94 1.95,-3.93 3.40,-5.16 10.67,-9.08 12.92,-6.95 16.14,-14.01 13.02,-28.53 L 216.67,78.5 l -1.58,3.76 c -2.77,6.58 -4.27,4.49 -6.13,-8.54 -1.07,-7.51 -2.27,-12.42 -3.31,-13.57 -2.25,-2.49 -2.04,-4.82 0.69,-7.56 1.27,-1.27 2.88,-3.68 3.58,-5.35 0.69,-1.66 2.37,-4.08 3.74,-5.36 1.36,-1.28 3.91,-5.04 5.66,-8.34 C 223.96,24.74 234,14.82 234,19 c 0,0.55 -0.59,1 -1.31,1 -0.72,0 -2.47,1.23 -3.89,2.75 C 226.03,25.67 220,34.88 220,36.15 c 0,0.41 1.85,0.10 4.12,-0.69 4.92,-1.73 19.64,-1.93 26.54,-0.34 4.53,1.03 5.35,0.88 13.66,-2.55 5.06,-2.10 9.97,-3.50 11.5,-3.30 l 2.66,0.36 -3,0.76 c -2.84,0.72 -17.63,6.48 -18.32,7.13 -0.17,0.16 2.14,3.64 5.15,7.72 7.55,10.21 8.90,15.17 8.09,29.76 -0.60,10.98 -0.53,11.65 1.73,15 2.98,4.40 13.05,9.84 25.96,14.01 11.92,3.85 14.54,6.26 16.44,15.14 0.74,3.48 1.37,10.94 1.39,16.56 0.01,5.62 0.75,17.55 1.63,26.5 0.87,8.94 1.66,23.46 1.75,32.26 0.13,14.11 -0.11,16.85 -2.12,23.23 -2.45,7.80 -5.82,11.97 -10.47,12.94 -2.59,0.54 -2.75,0.88 -2.75,6.00 0,2.98 0.42,8.44 0.94,12.12 0.51,3.68 1.44,11.64 2.05,17.69 0.61,6.05 1.74,14.6 2.51,19 1.71,9.84 3.77,27.79 3.71,32.46 -0.03,3.24 -2.21,6.19 -5.33,7.23 -0.74,0.24 -0.85,4.50 -0.36,13.89 l 0.71,13.53 24.62,1.21 c 37.04,1.82 68.09,4.52 66.81,5.79 -0.28,0.28 -8.76,-0.20 -18.85,-1.07 -23.67,-2.05 -49.75,-3.54 -62.08,-3.55 -11.48,-0.01 -10.79,-1.47 -7.36,15.60 1.31,6.53 3.12,16.15 4.04,21.38 0.91,5.22 2.37,12.2 3.25,15.5 0.87,3.3 1.92,10.95 2.33,17 0.73,10.93 2.31,20.41 6.04,36.28 1.06,4.55 1.94,10.66 1.94,13.56 0,5.87 -1.31,7.59 -10,13.11 -2.47,1.57 -6.45,4.19 -8.84,5.82 -2.38,1.63 -8.64,5.15 -13.91,7.83 C 287.27,505.69 282,507.16 282,505.10 z m 4.11,-5.29 c -3.82,-3.41 -7.98,-4.63 -9.20,-2.69 -1.46,2.31 -1.02,2.95 1.60,2.29 2.10,-0.52 2.40,-0.34 1.83,1.13 -0.57,1.50 -0.27,1.66 2.06,1.07 2.43,-0.61 2.67,-0.46 2.09,1.36 -0.60,1.90 -0.45,1.96 2.02,0.82 l 2.67,-1.22 -3.09,-2.76 z m 9.88,-0.31 c 2.71,-1.37 10.83,-6.33 18.04,-11.02 l 13.10,-8.52 -0.42,-7.22 c -0.40,-6.83 -1.43,-12.67 -5.84,-32.90 -1.04,-4.77 -1.91,-11.97 -1.93,-16 -0.02,-4.02 -0.44,-9.11 -0.92,-11.31 -0.48,-2.2 -1.66,-7.82 -2.62,-12.5 -0.95,-4.67 -1.82,-8.61 -1.92,-8.76 -0.10,-0.14 -2.83,0.97 -6.08,2.49 -4.97,2.32 -7.08,2.73 -13.40,2.58 -4.12,-0.09 -8.65,-0.61 -10.05,-1.14 l -2.55,-0.97 0.96,5.15 c 0.52,2.83 2.87,12.35 5.21,21.15 2.33,8.8 4.75,19.15 5.38,23 1.01,6.25 4.66,19.24 5.74,20.47 0.23,0.25 0.82,-0.17 1.31,-0.97 0.57,-0.92 0.45,-1.72 -0.30,-2.22 -0.90,-0.58 -0.86,-0.98 0.15,-1.65 0.90,-0.58 1.00,-1.09 0.29,-1.53 -0.58,-0.36 -0.84,-1.23 -0.57,-1.93 0.26,-0.70 -0.64,-2.59 -2.03,-4.20 -2.27,-2.65 -2.35,-3.00 -0.78,-3.62 0.95,-0.37 1.17,-0.72 0.48,-0.75 -1.87,-0.10 -1.50,-1.85 0.5,-2.38 1.57,-0.41 1.56,-0.46 -0.10,-0.57 -1.21,-0.07 -1.65,-0.63 -1.28,-1.61 0.31,-0.82 0.10,-1.5 -0.47,-1.5 -0.57,0 -0.86,-0.56 -0.63,-1.25 0.23,-0.68 -0.29,-1.80 -1.16,-2.48 -1.40,-1.08 -1.41,-1.34 -0.08,-2.23 1.28,-0.86 1.25,-1.00 -0.25,-1.01 -0.96,-0.00 -1.75,-0.43 -1.75,-0.94 0,-0.50 0.78,-1.13 1.75,-1.38 1.31,-0.34 1.19,-0.48 -0.5,-0.57 -3.09,-0.15 -2.82,-1.73 0.5,-2.95 l 2.75,-1.00 -2.75,-0.07 c -1.66,-0.04 -2.75,-0.63 -2.75,-1.49 0,-0.77 -0.56,-1.64 -1.25,-1.93 -0.75,-0.31 -0.35,-0.78 1.01,-1.20 l 2.26,-0.68 -2.02,-1.75 c -1.22,-1.06 -1.78,-2.39 -1.40,-3.37 0.38,-0.99 0.10,-1.63 -0.73,-1.65 -0.89,-0.02 -0.69,-0.53 0.58,-1.5 1.89,-1.43 1.88,-1.46 -0.30,-1.46 -1.24,0 -1.97,-0.44 -1.63,-1 0.33,-0.55 0.14,-1 -0.44,-1 -1.74,0 -1.19,-1.81 0.69,-2.31 1.31,-0.34 1.19,-0.48 -0.5,-0.57 -1.23,-0.06 -2.25,-0.53 -2.25,-1.04 0,-0.51 1.01,-1.12 2.25,-1.37 l 2.25,-0.44 -2.25,-0.74 c -4.05,-1.34 -2.36,-2.01 4.49,-1.79 3.71,0.11 6.92,0.22 7.14,0.25 0.95,0.09 -5.99,6.03 -7.05,6.03 -0.64,0 -0.92,0.25 -0.61,0.55 0.30,0.30 2.17,-0.11 4.14,-0.93 2.11,-0.88 3.82,-1.11 4.16,-0.55 0.31,0.51 0.11,0.93 -0.44,0.93 -0.56,0 -0.79,0.59 -0.51,1.32 0.28,0.73 -0.52,1.86 -1.78,2.52 -2.22,1.15 -2.21,1.17 0.45,0.65 1.55,-0.30 2.75,-0.09 2.75,0.47 0,0.56 -0.36,1.01 -0.80,1.01 -0.44,0 -1.68,0.69 -2.75,1.55 -1.84,1.47 -1.82,1.49 0.41,0.40 1.66,-0.80 2.66,-0.83 3.41,-0.08 0.74,0.74 0.35,1.34 -1.35,2.02 -2.39,0.95 -2.39,0.96 -0.16,1.03 3.27,0.09 2.75,1.60 -1,2.88 l -3.25,1.10 3.25,-0.54 c 3.96,-0.66 4.27,0.80 0.5,2.38 l -2.75,1.15 3.25,-0.53 c 3.73,-0.62 4.32,0.79 1,2.39 l -2.25,1.08 2.30,0.06 c 1.26,0.03 2.05,0.47 1.74,0.98 -0.31,0.50 5e-5,1.10 0.69,1.34 0.72,0.24 -0.23,1.37 -2.24,2.65 l -3.5,2.22 3.5,-0.62 3.5,-0.62 -2.5,2.14 -2.5,2.14 3.25,-0.55 c 3.63,-0.62 4.11,0.01 1.5,2.00 -1.65,1.25 -1.64,1.33 0.10,1.36 1.20,0.02 1.66,0.54 1.30,1.48 -0.37,0.96 -0.07,1.26 0.89,0.89 0.79,-0.30 1.44,-0.05 1.44,0.55 0,0.60 -0.33,1.12 -0.75,1.13 -0.41,0.01 -1.59,1.19 -2.62,2.60 l -1.87,2.57 3.12,-0.68 c 2.73,-0.60 3.12,-0.42 3.12,1.42 0,1.16 -0.67,2.36 -1.5,2.68 -2.02,0.77 -1.89,2.11 0.25,2.63 1.44,0.34 1.31,0.61 -0.75,1.50 l -2.5,1.08 2.75,0.06 c 3.28,0.07 3.72,2.00 0.5,2.19 l -2.25,0.13 2.26,0.43 c 1.24,0.23 2.02,0.81 1.74,1.28 -0.28,0.46 0.82,1.14 2.47,1.50 3.82,0.83 5.40,3.00 1.66,2.28 -1.45,-0.27 -2.64,-0.11 -2.64,0.35 0,0.47 0.56,0.86 1.25,0.86 0.68,3.8e-4 1.31,1.15 1.39,2.57 0.14,2.47 -0.01,2.54 -4,1.88 l -4.14,-0.68 2.25,2.42 c 2.98,3.22 2.85,4.24 -0.28,2.18 l -2.53,-1.65 1.76,3.07 c 1.99,3.47 1.22,5.26 -1.22,2.81 -0.89,-0.89 -2.37,-1.61 -3.29,-1.61 -1.20,0.00 -0.83,0.67 1.32,2.41 1.65,1.32 2.66,2.74 2.25,3.15 -0.40,0.41 -1.56,0.00 -2.57,-0.91 -1.00,-0.91 -2.69,-1.65 -3.75,-1.64 -1.47,0.01 -1.17,0.49 1.32,2.09 1.78,1.14 3.25,2.48 3.25,2.98 0,1.19 -0.16,1.16 -3.90,-0.70 -1.76,-0.88 -3.47,-1.34 -3.78,-1.03 -0.31,0.31 0.61,1.10 2.06,1.76 1.44,0.65 2.62,1.57 2.62,2.03 0,1.17 -1.10,0.99 -4,-0.66 -3.97,-2.27 -4.59,-1.73 -1.60,1.39 1.56,1.63 2.33,3.15 1.77,3.50 -0.54,0.33 -1.14,0.22 -1.33,-0.25 -0.18,-0.48 -1.46,-1.18 -2.83,-1.55 -2.44,-0.66 -2.45,-0.64 -0.5,0.93 1.1,0.89 2.67,2.00 3.49,2.47 0.82,0.47 1.22,1.12 0.89,1.45 -0.32,0.32 -2.57,-0.53 -4.99,-1.91 -2.41,-1.38 -5.18,-2.51 -6.14,-2.52 -0.96,-0.00 -1.75,-0.51 -1.75,-1.11 0,-0.60 0.67,-0.84 1.5,-0.53 0.82,0.31 1.5,0.13 1.5,-0.39 0,-0.53 1.21,-0.96 2.69,-0.96 2.53,0 2.57,-0.08 0.80,-1.37 -1.73,-1.27 -1.75,-1.50 -0.26,-3 0.89,-0.89 2.66,-1.65 3.94,-1.70 1.27,-0.04 1.75,-0.30 1.07,-0.58 C 292.56,482.65 292.66,481 294.38,481 c 0.76,0 1.32,-0.78 1.25,-1.75 -0.07,-0.96 0.31,-1.69 0.86,-1.63 0.55,0.06 2.57,0.39 4.5,0.72 l 3.5,0.60 -2.64,-2.22 c -2.06,-1.74 -2.46,-2.69 -1.82,-4.37 0.45,-1.18 1.30,-2.44 1.89,-2.80 2.04,-1.26 1.12,-3.54 -1.43,-3.54 -1.98,0 -3.43,1.40 -6.98,6.75 -2.46,3.71 -6.73,9.58 -9.49,13.05 -2.75,3.46 -5.01,6.67 -5.01,7.12 0,0.45 1.29,1.35 2.88,2.01 1.58,0.65 4.14,2.51 5.68,4.12 1.54,1.61 2.96,2.92 3.15,2.92 0.19,0 2.56,-1.12 5.28,-2.50 z M 204,474.22 c 0,-1.64 -3.14,-5.15 -6.48,-7.21 -3.61,-2.23 -5.51,-2.00 -5.51,0.65 0,1.15 0.63,1.38 2.5,0.92 2.92,-0.73 3.21,0.10 0.75,2.11 -1.59,1.30 -1.51,1.38 1,0.99 1.51,-0.23 2.75,-0.03 2.75,0.43 0,0.47 -0.45,0.86 -1,0.86 -0.55,0 -1,0.45 -1,1 0,0.55 1.57,1 3.5,1 1.92,0 3.5,-0.34 3.5,-0.77 z m 20,-3.20 c 12.41,-1.83 13.71,-2.22 16.14,-4.90 2.46,-2.71 2.68,-3.71 3.24,-15.25 0.32,-6.79 0.72,-24.07 0.88,-38.40 l 0.28,-26.05 -3.67,0.98 c -4.65,1.24 -19.15,-1.42 -22.13,-4.06 -2.03,-1.80 -2.04,-1.79 -1.41,4.68 0.34,3.57 0.92,17.86 1.30,31.75 0.62,23.46 0.80,25.25 2.48,25.25 1.27,0 1.62,-0.48 1.17,-1.65 -0.53,-1.40 -0.11,-1.56 2.78,-1.07 l 3.41,0.58 -3.5,-1.58 c -3.45,-1.56 -3.47,-1.59 -1,-2.24 l 2.5,-0.65 -2.79,-0.95 -2.79,-0.95 2.08,-2.23 C 225.07,432.00 225.07,432 223.03,432 221.91,432 221,431.57 221,431.06 c 0,-0.51 1.68,-0.73 3.75,-0.49 l 3.75,0.44 -3,-1.14 c -3.95,-1.51 -4.21,-1.81 -2.47,-2.91 0.99,-0.63 1.06,-0.93 0.22,-0.94 C 222.56,426.00 222,425.55 222,425 c 0,-0.55 1.68,-1.04 3.75,-1.09 l 3.75,-0.09 -3.25,-0.93 c -3.73,-1.07 -4.32,-2.84 -1,-2.96 2.03,-0.07 1.99,-0.17 -0.50,-1.08 -3.28,-1.19 -2.70,-2.79 1.06,-2.93 2.61,-0.09 2.59,-0.13 -0.55,-1.14 -3.75,-1.20 -4.27,-2.70 -1,-2.86 2.03,-0.10 2.05,-0.16 0.25,-0.59 -2.90,-0.69 -4.29,-2.28 -2,-2.28 1.47,0 1.63,-0.26 0.7,-1.2 -2.03,-2.03 -1.35,-2.8 2.5,-2.8 3.77,0 3.64,-1.45 -0.2,-2.19 -1.14,-0.22 -1.94,-1.11 -1.86,-2.09 0.07,-0.94 -0.28,-1.71 -0.80,-1.71 -0.52,0 -0.66,-0.45 -0.32,-1.00 0.34,-0.55 -0.07,-1.27 -0.93,-1.60 -2.43,-0.93 -0.78,-2.38 2.73,-2.41 l 3.19,-0.02 -4.31,-1.96 c -2.49,-1.13 -4.04,-2.41 -3.66,-3.02 0.46,-0.74 1.07,-0.72 2.03,0.07 0.75,0.62 3.13,1.66 5.28,2.29 4.82,1.42 5.49,2.97 1.59,3.69 l -2.94,0.54 3.5,0.73 c 2.50,0.52 3.10,0.98 2.12,1.59 -0.75,0.47 -1.06,1.35 -0.69,1.97 0.37,0.61 0.09,1.12 -0.62,1.15 -0.71,0.02 -0.05,0.71 1.47,1.54 3.39,1.84 2.69,3.38 -1.58,3.48 -2.46,0.05 -2.75,0.23 -1.29,0.81 2.50,0.98 3.15,6.10 0.78,6.14 -1.53,0.02 -1.52,0.12 0.06,1.04 0.96,0.56 1.75,1.44 1.75,1.96 0,0.52 -0.78,0.96 -1.75,0.98 -1.66,0.02 -1.66,0.07 0,1.04 0.96,0.56 1.75,1.41 1.75,1.89 0,0.48 -0.78,1.08 -1.75,1.33 -1.31,0.34 -1.19,0.48 0.5,0.57 1.28,0.06 2.25,0.76 2.25,1.61 0,0.88 -0.92,1.50 -2.25,1.51 -1.67,0.01 -1.89,0.24 -0.87,0.88 0.75,0.48 1.08,1.34 0.72,1.92 -0.35,0.57 0.12,1.48 1.07,2.01 1.37,0.76 1.47,1.25 0.52,2.40 -0.65,0.79 -0.86,1.77 -0.45,2.17 0.40,0.40 -0.13,1.37 -1.19,2.15 C 228.41,437.41 228.15,438 228.91,438 c 0.71,0 1.05,0.63 0.76,1.40 -0.29,0.77 -0.26,1.67 0.05,1.99 0.32,0.32 0.71,1.72 0.86,3.09 0.23,2.22 -0.03,2.44 -2.41,1.96 -1.94,-0.39 -1.65,-0.08 1.06,1.10 2.06,0.90 3.75,2.06 3.75,2.57 0,0.53 -0.82,0.48 -1.93,-0.10 -2.77,-1.48 -3.51,-1.27 -1.98,0.56 0.72,0.87 1.45,2.46 1.62,3.53 0.27,1.78 0.00,1.73 -3.39,-0.57 -4.15,-2.82 -5.55,-2.60 -2.80,0.43 1.00,1.10 1.46,2.34 1.02,2.75 -0.43,0.40 -1.00,0.17 -1.24,-0.51 -0.24,-0.69 -1.42,-1.73 -2.61,-2.30 -2.08,-1.00 -2.09,-0.98 -0.23,0.50 3.17,2.54 0.94,2.96 -2.54,0.47 -3.13,-2.23 -3.16,-1.26 -0.06,2.33 2.05,2.39 0.63,2.19 -3.02,-0.40 l -3.03,-2.15 1.74,2.65 c 1.99,3.03 1.10,3.48 -1.80,0.90 -1.91,-1.69 -1.93,-1.68 -0.82,0.43 1.47,2.81 1.45,2.98 -0.48,3.72 -0.89,0.34 -2.31,0.05 -3.16,-0.64 -1.34,-1.11 -1.39,-0.99 -0.37,0.91 2.43,4.56 0.69,4.49 -4.40,-0.18 -2.54,-2.32 -3.27,-3.5 -2.19,-3.5 0.89,0 2.32,-0.70 3.18,-1.56 0.86,-0.86 2.08,-1.24 2.72,-0.84 0.64,0.39 0.89,0.28 0.55,-0.25 -0.87,-1.40 2.97,-4.39 4.77,-3.70 0.83,0.32 1.51,0.08 1.51,-0.52 0,-0.60 0.61,-1.10 1.37,-1.10 0.75,0 1.94,-0.68 2.64,-1.52 0.72,-0.87 2.04,-1.27 3.12,-0.93 2.43,0.77 2.38,-0.19 -0.08,-1.51 -2.22,-1.19 -8.65,2.20 -20.33,10.72 l -6.77,4.94 3.98,2.63 c 2.19,1.45 4.98,3.98 6.19,5.62 1.56,2.11 2.81,2.84 4.28,2.51 1.14,-0.25 8.15,-1.36 15.57,-2.46 z m 82.75,-78.97 c 3.43,-1.62 6.25,-3.31 6.25,-3.74 0.00,-0.43 -1.33,-7.99 -2.96,-16.79 -1.63,-8.8 -3.51,-22.64 -4.16,-30.76 -1.02,-12.66 -1.42,-14.70 -2.78,-14.30 -6.64,1.91 -11.67,2.86 -21.24,4.05 -6.05,0.74 -11.22,1.57 -11.47,1.82 -0.42,0.42 1.36,11.20 5.10,30.69 0.79,4.12 1.90,10.65 2.47,14.5 1.31,8.88 2.81,14.23 4.25,15.12 2.02,1.25 7.19,2.16 12.80,2.27 4.16,0.07 7.01,-0.61 11.75,-2.85 z m -25.47,-49.64 c 0.33,-0.33 1.19,-0.36 1.91,-0.07 0.79,0.31 0.56,0.55 -0.60,0.60 -1.05,0.04 -1.64,-0.19 -1.31,-0.52 z m -3.76,-1.38 c -0.35,-0.56 0.05,-0.73 0.94,-0.39 1.73,0.66 2.04,1.38 0.61,1.38 -0.51,0 -1.21,-0.44 -1.55,-0.98 z m 7.58,0.73 c 0.23,-0.13 1.99,-1.6 3.91,-3.25 l 3.49,-3 -2.93,3.25 c -1.61,1.78 -3.37,3.25 -3.91,3.25 -0.53,0 -0.78,-0.11 -0.55,-0.25 z m -41.77,43.15 c 2.15,-0.98 2.47,-1.90 2.97,-8.75 0.75,-10.21 4.59,-42.16 5.17,-43.10 0.46,-0.75 -19.40,-2.03 -31.65,-2.04 l -6.68,-0.00 0.52,11.25 c 1.00,21.54 3.04,36.89 5.18,39.04 3.67,3.67 19.26,5.97 24.46,3.60 z M 230,345.29 c 0.82,-0.30 2.4,-1.28 3.5,-2.17 1.98,-1.60 1.98,-1.60 0.09,0.63 -1.04,1.23 -2.62,2.21 -3.5,2.17 -1.35,-0.06 -1.36,-0.16 -0.09,-0.63 z m -10.02,-1.81 c -0.69,-0.83 -1.07,-1.71 -0.83,-1.95 0.23,-0.23 0.97,0.44 1.65,1.52 1.45,2.32 0.96,2.57 -0.81,0.43 z m 51.75,9.09 c 0.12,-0.11 -0.42,-3.77 -1.24,-8.13 C 267.92,330.68 268.97,332 260.60,332 l -7.35,0 -0.59,3.75 c -0.32,2.06 -0.89,6.91 -1.25,10.79 l -0.65,7.04 10.37,-0.40 c 5.70,-0.22 10.48,-0.49 10.61,-0.60 z m 12.20,-24.08 c 14.75,-2.09 25.86,-5.24 27.17,-7.69 0.74,-1.39 0.75,-4.41 0.02,-10.13 -0.57,-4.48 -1.27,-10.17 -1.56,-12.64 -0.29,-2.47 -1.63,-12.15 -2.99,-21.5 -1.35,-9.35 -2.77,-23.18 -3.16,-30.75 -0.38,-7.56 -0.81,-13.75 -0.95,-13.75 -0.22,0 -15.58,4.03 -21.46,5.64 -4.86,1.32 -5.04,3.64 -1.40,18.35 1.76,7.14 2.45,12.19 2.16,15.80 l -0.43,5.30 3.02,-5.24 c 1.66,-2.88 3.20,-4.71 3.41,-4.07 0.61,1.84 -8.43,16.29 -14.39,22.98 -7.37,8.27 -13.93,11.44 -24.89,12.01 -4.97,0.26 -9.76,-0.05 -12.10,-0.79 C 231.95,300.60 220,293.21 220,291.88 c 0,-1.33 0.23,-1.21 7.26,3.49 10.29,6.90 21.71,7.99 33.23,3.18 4.47,-1.86 6.98,-3.83 12.03,-9.45 l 3.94,-4.38 -5.06,2.56 c -11.19,5.67 -20.90,6.79 -36.04,4.17 -13.80,-2.39 -22.73,-9.26 -25.50,-19.64 l -1.24,-4.64 -3.36,2.56 c -3.83,2.92 -3.74,-1.39 -0.71,33.25 1.93,22.11 2.33,23.43 7.74,25.35 6.00,2.12 56.92,2.21 71.63,0.12 z M 238,318.32 c -5.01,-0.51 -17.23,-3.42 -19,-4.51 -1.82,-1.13 2.44,-0.57 12.5,1.62 9.53,2.09 18.77,1.95 30.84,-0.46 12.76,-2.55 19.96,-6.09 30.39,-14.96 4.53,-3.85 8.55,-7.00 8.94,-7.00 1.44,0 -6.41,7.35 -13.94,13.05 -8.78,6.65 -15.60,9.20 -30.73,11.49 -9.27,1.40 -11.82,1.50 -19,0.77 z m 5.45,-38.19 c -1.39,-1.27 -6.45,-2.30 -6.45,-1.31 0,1.54 1.28,2.18 4.36,2.18 1.78,0 2.64,-0.35 2.08,-0.87 z M 254,278.96 c 0,-1.70 -0.31,-1.86 -1.93,-1 -1.06,0.56 -2.83,1.03 -3.94,1.03 -1.10,0 -2.28,0.45 -2.62,1 -0.37,0.61 1.15,1 3.94,1 3.91,0 4.55,-0.28 4.55,-2.03 z m 10.20,-0.04 c 5.70,-1.49 6.79,-3.16 6.79,-10.40 0,-9.49 -0.65,-10.30 -4.22,-5.26 -1.65,2.33 -4.70,6.05 -6.76,8.25 -2.06,2.2 -4.05,5.29 -4.42,6.87 -0.74,3.17 -1.25,3.13 8.63,0.54 z m -30.77,-3.68 C 230.63,272.77 229,273.04 229,275.97 c 0,1.13 1.07,2.22 2.75,2.79 3.91,1.33 4.88,-0.70 1.67,-3.53 z M 244.36,274.25 c 0.29,-2.06 0.81,-6.45 1.14,-9.75 0.33,-3.3 0.83,-6.78 1.11,-7.75 0.38,-1.31 -0.07,-1.75 -1.85,-1.75 -1.30,0 -2.87,-0.50 -3.49,-1.13 -1.26,-1.26 -1.56,0.12 -2.96,13.87 -0.83,8.22 -0.83,8.24 1.67,9.17 3.77,1.38 3.80,1.37 4.37,-2.66 z m 6.13,2.31 c 2.14,-0.89 3.62,-2.30 3.93,-3.75 0.77,-3.58 2.56,-19.93 2.56,-23.52 l 0.00,-3.20 -4.39,4.70 c -4.22,4.52 -4.43,5.05 -5.49,13.70 -1.22,9.98 -1.37,13.5 -0.57,13.5 0.29,0 2.07,-0.64 3.96,-1.43 z M 228,273.11 c 0,-1.65 -1.00,-3.70 -2.49,-5.11 -3.03,-2.84 -2.58,-3.76 0.76,-1.56 l 2.44,1.59 0.63,-6.76 c 0.35,-3.72 0.64,-8.32 0.64,-10.23 L 230,247.57 225,252.5 c -4.59,4.52 -5,5.30 -5,9.64 0,5.53 1.32,9.48 4.21,12.57 C 226.71,277.39 228,276.84 228,273.11 z m 9.92,-16.99 c 0.63,-6.25 0.92,-11.60 0.65,-11.87 -0.26,-0.26 -1.62,-0.20 -3.02,0.14 -2.95,0.74 -3.19,1.56 -4.51,15.09 l -0.96,9.98 2.71,2.83 2.71,2.83 0.63,-3.81 c 0.35,-2.09 1.15,-8.93 1.78,-15.19 z m 28.77,4.08 c 2.52,-4.26 2.52,-4.32 0.91,-10.06 C 266.72,246.96 266,243.16 266,241.68 266,239.48 265.54,239 263.47,239 c -3.44,0 -4.12,2.14 -5.45,17 -0.61,6.87 -1.37,13.4 -1.68,14.5 -0.84,3.00 7.26,-5.04 10.36,-10.29 z m -61.26,7.18 c 3.79,-3.17 4.38,-4.23 4.92,-8.77 0.33,-2.84 1.74,-8.49 3.12,-12.56 3.01,-8.87 2.98,-8.33 0.51,-7.55 -2.72,0.86 -2.55,0.34 1.5,-4.5 3.70,-4.43 4.11,-5.50 2.5,-6.5 -1.49,-0.92 -1.20,-2.5 0.46,-2.5 1.50,0 2.43,-2.73 4.56,-13.38 0.91,-4.60 0.90,-6.04 -0.05,-6.63 -0.67,-0.41 -0.92,-1.24 -0.56,-1.83 0.36,-0.59 -0.21,-1.95 -1.29,-3.03 -1.07,-1.07 -2.50,-2.97 -3.16,-4.20 -1.00,-1.87 -0.91,-2.45 0.49,-3.48 1.80,-1.31 6.57,-0.47 9.08,1.60 1.04,0.86 7.36,-4.93 29.13,-26.70 25.88,-25.88 31.50,-31.72 40.15,-41.70 1.82,-2.10 3.56,-3.56 3.88,-3.25 1.01,1.01 -16.24,20.07 -29.69,32.77 -7.20,6.80 -19.18,18.84 -26.63,26.76 -11.88,12.63 -13.46,14.71 -12.94,17 0.32,1.43 1.11,5.17 1.75,8.31 l 1.16,5.71 5.57,-6.21 c 8.68,-9.67 16.28,-17.33 15.91,-16.03 -0.18,0.65 -4.49,5.89 -9.58,11.65 -5.08,5.76 -9.25,10.99 -9.25,11.63 0,0.70 1.26,1.03 3.21,0.84 2.44,-0.23 3.37,-0.91 3.90,-2.81 0.65,-2.37 0.69,-2.38 0.78,-0.25 0.08,1.86 0.67,2.25 3.44,2.25 2.48,0 3.62,-0.58 4.43,-2.25 0.86,-1.79 1.09,-1.89 1.15,-0.5 0.08,2.32 7.06,2.56 7.06,0.25 0,-0.82 0.45,-1.5 1,-1.5 0.55,0 1,0.50 1,1.12 0,2.32 2.68,-1.12 3.81,-4.90 1.73,-5.78 6.90,-12.92 11.79,-16.29 2.41,-1.65 4.38,-3.37 4.38,-3.81 0,-0.43 2.68,-4.52 5.97,-9.07 3.28,-4.55 8.18,-12.41 10.88,-17.46 2.70,-5.05 6.91,-12.31 9.36,-16.13 2.44,-3.81 4.70,-8.28 5.02,-9.93 0.31,-1.64 -0.12,-6.80 -0.98,-11.47 -1.96,-10.64 -3.91,-12.81 -14.26,-15.93 -4.12,-1.24 -10.02,-3.37 -13.10,-4.74 L 280.29,98.85 240.14,138.77 200,178.69 l -0.08,12.90 c -0.04,7.09 -0.42,16.95 -0.83,21.90 -0.68,8.16 0.74,57.5 1.65,57.5 0.21,0 2.32,-1.62 4.70,-3.60 z m 15.26,-92.80 C 223.78,169.12 278.56,114 280.91,114 c 0.64,0 -8.90,9.89 -21.22,21.98 -12.31,12.09 -25.91,26.04 -30.23,31 -7.03,8.07 -10.93,11.46 -8.75,7.59 z M 247.37,250.87 c 0.67,-3.35 0.85,-9.87 0.27,-9.87 -0.19,0 -1.76,0.49 -3.5,1.09 -3.09,1.07 -3.26,1.44 -3.56,7.62 -0.07,1.45 3.51,4.21 5.54,4.26 0.34,0.00 0.90,-1.39 1.25,-3.11 z m -20.85,-1.89 3.92,-4.01 -3.47,0.65 c -4.22,0.79 -4.64,1.14 -5.50,4.63 -0.93,3.79 0.45,3.44 5.05,-1.26 z m 28.56,-3.60 C 256.68,243.04 258,240.88 258,240.56 c 0,-1.16 -7.07,-0.52 -7.45,0.68 -0.21,0.68 -0.69,3.47 -1.05,6.19 -0.61,4.55 -0.53,4.83 1.00,3.55 0.92,-0.76 2.98,-3.29 4.59,-5.62 z m -57.89,-9.12 c -0.35,-14.61 1.03,-51.25 3.21,-84.75 0.82,-12.65 1.63,-25.78 1.79,-29.19 l 0.29,-6.19 -2.87,1.69 c -3.47,2.05 -6.01,8.09 -8.21,19.51 -2.13,11.06 -3.23,81.75 -1.42,91.01 0.86,4.38 6.74,20.66 7.47,20.66 0.02,2.2e-4 -0.10,-5.73 -0.27,-12.75 z m 39.31,5.68 c 12.18,-3.12 16.02,-3.72 28.5,-4.45 16.28,-0.94 42.31,-7.46 46.21,-11.57 4.99,-5.25 6.30,-12.20 6.14,-32.62 -0.11,-15.05 -2.81,-51.92 -3.88,-53.10 -0.41,-0.45 -6.74,10.03 -10.80,17.91 -1.86,3.62 -4.96,9.04 -6.88,12.04 -3.85,6.03 -3.81,5.06 -1.11,23.11 0.88,5.91 1.99,10.75 2.47,10.75 0.47,0 0.86,0.38 0.86,0.84 0,1.08 -17.00,7.50 -37.41,14.12 -8.75,2.84 -18.06,6.25 -20.68,7.58 -4.26,2.16 -5.32,2.31 -9.97,1.43 -8.91,-1.69 -9.93,-1.35 -5.40,1.76 l 3.98,2.75 -4.5,0.51 c -4.47,0.50 -4.48,0.51 -1.25,1.22 4.38,0.96 4.11,2.56 -0.5,2.98 l -3.75,0.34 3.43,1.01 c 4.20,1.24 4.86,2.73 1.84,4.18 -2.12,1.02 -2.04,1.10 1.22,1.15 1.92,0.03 7.1,-0.86 11.5,-1.99 z M 234,225.12 c 0,-1.03 0.28,-3.28 0.62,-5 0.34,-1.71 0.23,-3.12 -0.25,-3.11 -1.16,0.01 -4.48,8.00 -3.79,9.11 C 231.57,227.73 234,227.02 234,225.12 z m 6.04,-0.65 C 242.45,223.22 243,222.31 243,219.47 243,216.31 242.74,216 240.11,216 c -3.07,0 -4.07,1.77 -4.10,7.25 -0.01,3.19 0.13,3.24 4.03,1.22 z M 250.75,219.68 c 0.68,-0.50 1.25,-1.68 1.25,-2.60 0,-1.32 -0.72,-1.59 -3.5,-1.26 -1.92,0.22 -3.50,0.92 -3.51,1.54 -0.00,0.62 -0.28,2.16 -0.62,3.42 -0.58,2.17 -0.47,2.22 2.26,1.05 1.58,-0.67 3.43,-1.64 4.12,-2.15 z m 6.68,-1.65 c 3.56,-1.35 3.42,-3.90 -0.18,-3.23 -2.60,0.48 -4.20,1.79 -4.23,3.46 -0.02,1.01 1.34,0.94 4.41,-0.22 z M 265,214.89 c 0,-1.28 -0.57,-1.10 -2.01,0.62 -1.05,1.27 -0.99,1.41 0.37,0.89 C 264.26,216.06 265,215.38 265,214.89 z m 21,-6.31 c 6.72,-2.64 8.45,-3.73 8.28,-5.21 -0.11,-1.02 -0.98,-7.19 -1.92,-13.71 -1.89,-13.13 -1.78,-13.07 -7.32,-3.91 -1.94,3.21 -1.94,3.24 -1.9e-4,4.28 2.50,1.33 2.48,3.18 -0.04,5.47 -3.40,3.08 -10.11,16.56 -8.19,16.45 0.38,-0.02 4.52,-1.54 9.19,-3.38 z m -43.23,-75.73 c -0.28,-0.78 -2.40,-2.32 -17.07,-12.34 -10.97,-7.49 -15.76,-8.94 -19.36,-5.84 -2.01,1.73 -2.21,3.29 -3.25,24.85 -0.61,12.65 -1.38,25.92 -1.72,29.5 l -0.60,6.5 21.14,-20.96 c 11.62,-11.53 21.02,-21.29 20.88,-21.68 z m -20.43,6.26 c -5.82,-3.21 -14.63,-10.13 -13.87,-10.89 0.27,-0.27 2.87,1.28 5.77,3.47 2.90,2.18 7.41,5.19 10.02,6.68 4.49,2.55 5.69,3.64 4,3.60 -0.41,-0.01 -3.07,-1.30 -5.92,-2.87 z m -0.97,-10.07 C 213.98,124.50 209.68,121 211.48,121 c 0.40,0 3.98,2.13 7.96,4.75 3.98,2.61 8.09,5.25 9.14,5.88 1.04,0.62 1.64,1.40 1.33,1.73 -0.31,0.33 -4.17,-1.61 -8.58,-4.33 z m 43.74,-17.84 12.58,-13.53 -3.48,-3.06 c -5.51,-4.84 -6.36,-7.99 -5.60,-20.89 0.42,-7.19 0.25,-12.65 -0.46,-15.29 -1.07,-3.94 -5.62,-10.84 -10.95,-16.63 -2.37,-2.57 -2.63,-2.64 -4.35,-1.08 -2.39,2.17 -3.62,0.88 -1.44,-1.51 1.61,-1.78 1.45,-1.90 -4.00,-3.00 -12.00,-2.41 -22.46,-0.74 -30.09,4.78 -3.02,2.18 -4.60,4.38 -6.16,8.54 -2.37,6.33 -2.56,10.35 -1.00,20.75 0.60,3.99 1.31,8.81 1.57,10.69 l 0.48,3.43 1.91,-4.26 c 2.26,-5.05 4.30,-4.95 4.74,0.23 0.40,4.76 1.57,4.65 3.57,-0.32 0.88,-2.2 2.04,-4 2.59,-4 0.54,0 1.50,2.03 2.13,4.51 1.52,6.07 2.53,6.36 3.14,0.92 0.28,-2.48 1.30,-5.40 2.28,-6.48 2.31,-2.55 3.03,-1.78 1.13,1.20 -0.81,1.28 -1.80,4.36 -2.19,6.83 -0.39,2.47 -0.92,4.85 -1.18,5.29 -0.89,1.51 -3.28,-1.54 -4.42,-5.66 L 224.72,78.5 l -1.48,3.5 c -0.81,1.92 -1.85,6.73 -2.30,10.69 -0.84,7.40 -2.68,12.18 -6.15,15.97 l -1.98,2.17 3.35,1.69 c 3.42,1.73 15.79,9.96 23.85,15.87 l 4.5,3.30 4,-3.49 c 2.2,-1.92 9.66,-9.58 16.58,-17.03 z M 252.57,77.88 c 0.41,-0.67 2.40,-0.92 5.04,-0.62 5.07,0.57 5.81,-0.07 7.18,-6.25 l 0.99,-4.5 0.10,4.31 C 266.06,77.81 264.91,79 257.90,79 c -4.17,0 -5.81,-0.34 -5.33,-1.11 z m -4.06,-2.88 c -0.29,-0.48 2.20,-1.88 5.56,-3.10 6.77,-2.47 6.31,-1.25 4.22,-11.29 -0.37,-1.79 -0.23,-2.67 0.38,-2.29 1.28,0.79 3.64,11.36 2.83,12.68 -0.34,0.55 -1.38,1.02 -2.31,1.03 -0.93,0.01 -3.59,0.88 -5.91,1.94 -2.32,1.05 -4.47,1.52 -4.77,1.03 z M 236.57,62.42 c -2.27,-2.27 -2.01,-7.12 0.44,-8.43 1.49,-0.79 2.73,-0.74 4.75,0.22 3.73,1.78 4.00,5.02 0.65,7.67 -3.21,2.53 -3.80,2.58 -5.84,0.54 z m 4.49,-1.46 c 2.84,-1.52 2.46,-4.79 -0.63,-5.57 -3.56,-0.89 -5.09,0.83 -3.62,4.08 1.29,2.84 1.55,2.93 4.26,1.49 z m -2.39,-1.63 C 237.51,58.18 237.93,57 239.5,57 c 0.82,0 1.5,0.67 1.5,1.5 0,1.56 -1.18,1.98 -2.33,0.83 z M 208,54.5 c 0,-0.82 -0.17,-1.5 -0.39,-1.5 -0.21,0 -0.65,0.67 -0.96,1.5 -0.31,0.82 -0.13,1.5 0.39,1.5 C 207.56,56 208,55.32 208,54.5 z" fill="#2a2a2a" />
</g></svg>
</svg>